<svg width="116" height="24" viewBox="0 0 116 24" fill="none" xmlns="http://www.w3.org/2000/svg">
<path d="M15.4392 15.9604C14.1217 16.0386 15.9882 10.0644 17.0861 7.06754C17.4737 5.69939 16.4403 5.37366 15.9236 5.40623C13.8892 5.30851 13.7923 10.2729 11.8547 12.5401C7.01082 18.2081 3.81384 15.5695 4.29823 13.3219C8.85151 13.7127 14.1798 8.63111 10.6922 5.79712C9.14214 4.53758 3.62009 4.9176 1.29501 12.3446C0.681448 14.2339 0.616863 18.1299 5.26701 18.599C6.33267 18.7618 9.20027 18.2276 12.1454 14.7877C12.0162 16.0581 12.3585 18.599 14.7611 18.599C16.6986 18.6771 18.6685 16.3513 19.4112 15.1786C20.0894 14.2014 21.9946 9.86896 22.802 7.75162C23.3445 6.34439 22.7051 5.79714 22.3176 5.69942C21.5425 5.50396 20.6706 5.60166 20.2831 6.87209C19.9925 7.75161 18.9268 11.4651 17.183 14.4945C16.3111 16.1559 15.8267 15.9604 15.3423 15.9604M60.3817 18.1075C58.6287 18.1075 58.5638 15.5054 58.8235 14.2043C59.0183 13.0333 60.9336 6.17017 62.0374 2.59221C62.4269 1.22609 63.4008 0.640596 64.4721 1.22606C64.8617 1.42124 65.446 1.81157 64.3747 4.6414C62.3295 10.6914 61.8426 13.1309 61.7452 13.814C61.5256 15.3541 61.94 15.668 62.5243 15.668C63.4008 15.668 63.4982 16.0583 63.4982 16.3511C63.5956 18.1075 61.5504 18.2051 60.2844 18.1075M4.68575 11.4651C7.01082 11.6605 10.1109 9.21745 9.04526 7.94705C8.64347 7.46806 6.70081 7.39977 4.68575 11.4651ZM25.8052 11.7583C26.5156 10.1947 28.4209 7.16524 29.9709 7.94705C30.7787 8.35445 30.2228 11.0547 25.8052 11.7583ZM25.4176 13.5173C25.127 15.4718 27.0646 17.8172 31.521 14.0059C32.4252 13.159 33.9429 11.0743 34.718 9.2174C35.028 8.43554 35.493 7.13263 35.6867 6.57891C35.8159 6.15545 36.2698 5.53686 37.2368 5.69942C38.3993 5.89485 38.0118 6.96986 37.8181 7.84935C38.6254 6.96984 40.1431 5.40622 41.7901 5.69942C42.7266 5.82971 44.4251 6.71573 43.7276 9.21746C43.0737 11.5628 41.015 15.765 42.0807 15.9604C43.6307 16.2536 46.3433 10.5856 47.1184 7.65391C45.5683 7.6539 45.3746 7.06756 45.3746 6.67666C45.3746 5.11308 47.0215 5.30853 47.8934 5.30853C49.1528 1.59502 49.7341 0.910957 50.7028 1.00867C52.5435 1.1064 51.2841 3.06088 50.7028 5.40626H52.4467C54.2873 5.30854 53.7061 7.6539 52.156 7.65391H49.9278C49.3078 9.45203 48.4478 12.2075 48.0871 13.5173C47.6028 15.2764 48.2163 15.765 48.6684 15.8627C49.6759 16.0191 50.832 14.69 51.2841 14.006C52.156 12.8333 53.0617 14.1037 52.5435 15.0809C50.761 18.4426 48.0548 18.827 46.9246 18.599C45.297 18.2081 44.8902 16.6771 44.8902 15.9604C42.4876 19.0094 40.2723 18.4687 39.465 17.8172C38.1474 16.8009 39.3681 13.2893 40.1431 11.6606C41.4025 8.92432 41.015 8.43567 40.5306 8.33795C38.3993 7.94708 35.6544 14.5271 34.8148 17.524C34.4589 18.7944 33.3616 18.6641 32.8772 18.599C32.3928 18.5338 31.5403 18.1885 32.0054 17.3285C32.5866 16.2536 32.5866 15.3557 32.3929 15.5695C29.7578 18.5403 27.217 18.7991 25.9989 18.6967C23.8008 18.5119 22.7051 16.7422 22.5113 16.1559C21.5425 13.5173 23.3832 10.1621 24.352 8.82657C27.1421 4.83944 30.2939 5.21079 31.521 5.89485C33.2261 6.98936 32.6835 9.21747 32.1991 10.1947C30.6491 13.0092 27.0323 13.5825 25.4176 13.5173ZM70.9973 8.34945C68.9521 7.66636 65.8356 14.9849 68.3677 15.5704C71.4842 16.2535 73.0425 8.93491 70.9973 8.34945ZM71.5816 5.90991C66.8095 4.73897 60.9661 15.6681 67.686 18.0099C74.2112 19.3761 77.3276 6.98334 71.5816 5.90991ZM81.905 8.54466C79.5676 7.66642 76.4511 14.4971 79.3728 15.3753C81.905 15.8632 84.4371 9.42287 81.905 8.54466ZM84.0475 6.98336C84.5345 5.71482 85.6058 5.71481 85.9954 5.81238C86.4213 5.91907 86.9105 6.11041 86.5797 7.56884C86.0927 9.71562 85.1188 13.2285 84.9241 13.9116C83.6907 18.2367 82.6841 22.7914 78.5937 22.9866C76.9056 23.0842 73.6073 22.6938 73.919 20.3519C74.0164 19.6688 74.5812 18.5369 76.0615 19.4737C77.5419 20.4104 78.5612 20.3844 78.8859 20.2543C79.2105 20.1567 80.0156 19.6493 80.6389 18.4003C80.8012 18.0425 81.1453 17.2684 81.2232 17.0342C81.3206 16.7414 80.4441 17.8148 78.4963 17.7172C76.5485 17.6196 75.8157 15.9511 75.672 15.3753C75.4772 14.5946 75.3798 13.0334 75.9642 10.8866C76.2888 9.74814 77.5419 7.19804 79.9572 6.10514C82.3724 5.01223 83.6904 6.23524 84.0475 6.98336ZM93.2228 8.49139C90.8855 7.61315 87.769 14.4438 90.6907 15.322C93.2229 15.8099 95.755 9.3696 93.2228 8.49139ZM95.3654 6.93009C95.8524 5.66155 96.9237 5.66154 97.3132 5.75911C97.7392 5.8658 98.2284 6.05714 97.8976 7.51558C97.4106 9.66235 96.4367 13.1752 96.242 13.8583C95.0086 18.1835 94.002 22.7381 89.9116 22.9333C88.2235 23.0309 84.9252 22.6406 85.2369 20.2986C85.3343 19.6156 85.8991 18.4836 87.3794 19.4204C88.8598 20.3572 89.8791 20.3312 90.2038 20.201C90.5284 20.1035 91.3335 19.596 91.9568 18.347C92.1191 17.9892 92.4632 17.2151 92.5411 16.9809C92.6385 16.6881 91.762 17.7615 89.8142 17.664C87.8664 17.5664 87.1336 15.8979 86.9899 15.322C86.7951 14.5414 86.6977 12.9801 87.2821 10.8333C87.6067 9.69487 88.8598 7.14477 91.275 6.05187C93.6903 4.95897 95.0083 6.18197 95.3654 6.93009ZM100.507 11.5696C100.993 10.2686 102.46 7.52294 103.915 8.25191C105.473 9.03254 102.26 11.7648 100.507 11.5696ZM100.214 13.3261C100.084 14.0742 100.195 15.5509 101.675 15.4729C103.526 15.3753 103.331 14.4971 104.305 14.5946C105.279 14.6922 105.234 15.6159 105.084 15.9608C104.759 16.7089 103.623 18.1075 101.48 18.1075C100.247 18.1401 98.2665 17.9124 97.4874 15.3753C97.2602 14.6922 97.0394 12.7992 97.9744 10.6914C99.143 8.05674 100.312 6.88577 101.967 6.10513C103.623 5.32448 105.181 5.71481 105.96 6.78819C106.739 7.86158 106.739 9.13016 105.96 10.5939C105.181 12.0576 103.112 13.4236 100.214 13.3261ZM113.265 8.8373C112.583 8.8373 111.297 8.93488 110.44 10.8865C110.148 11.5045 109.505 13.0723 109.272 14.3994C108.979 16.0583 108.492 18.1075 107.226 18.1075C105.96 18.1075 105.571 17.4244 105.96 16.0583C106.35 14.6921 107.226 11.5696 107.421 10.8865C107.616 10.2034 108.103 7.76391 108.2 7.17843C108.298 6.59295 108.59 5.71472 109.759 5.8123C110.278 5.84483 111.2 6.24167 110.732 7.56876C110.148 9.22763 112.096 4.93409 113.849 5.71473C115.602 6.49537 115.31 8.93488 113.265 8.8373Z" stroke="#FB8231"/>
</svg>
